<svg width="702" height="64" viewBox="0 0 702 64" fill="none" xmlns="http://www.w3.org/2000/svg">
<path d="M12.7204 50.8325H0V3.69823H48.1194V50.8325H35.399V15.8081H12.7204V50.8325Z" fill="white"/>
<path d="M73.6664 39.8103H78.8273C83.0432 39.8103 86.1687 36.9098 86.1687 32.7039C86.1687 28.4981 83.0432 25.67 78.8273 25.67H73.6664C69.3778 25.67 66.3249 28.4981 66.3249 32.7039C66.3249 36.9098 69.3778 39.8103 73.6664 39.8103ZM78.8273 50.8325H73.7391C62.4725 50.8325 54.2587 43.436 54.2587 32.7039C54.2587 21.9718 62.4725 14.6479 73.7391 14.6479H78.8273C90.0939 14.6479 98.3076 21.9718 98.3076 32.7039C98.3076 43.436 90.0939 50.8325 78.8273 50.8325Z" fill="white"/>
<path d="M110.118 63.45H100.596V40.2454H104.594C106.048 40.2454 107.065 39.0852 107.429 36.9098L110.772 14.6479H144.718V40.2454H150.024V63.45H140.502V50.8325H110.118V63.45ZM119.64 25.3075L118.259 33.284C117.532 37.4174 116.951 39.0127 116.079 40.2454H132.579V25.3075H119.64Z" fill="white"/>
<path d="M167.158 50.8325H155.02V14.6479H197.833V50.8325H185.694V25.3075H167.158V50.8325Z" fill="white"/>
<path d="M217.06 14.6479V35.532L233.197 17.4034C235.014 15.373 236.323 14.6479 239.739 14.6479H242.429C245.918 14.6479 247.735 16.0982 247.735 18.8537V50.8325H235.596V27.8455L217.715 47.7144C215.679 49.9623 214.371 50.8325 211.464 50.8325H209.21C206.303 50.8325 204.922 49.5272 204.922 46.9892V14.6479H217.06Z" fill="white"/>
<path d="M289.205 50.8325H272.85C261.584 50.8325 253.37 43.436 253.37 32.7039C253.37 21.9718 261.584 14.6479 272.85 14.6479H289.205V25.67H272.778C268.489 25.67 265.436 28.4981 265.436 32.7039C265.436 36.9098 268.489 39.8103 272.778 39.8103H289.205V50.8325Z" fill="white"/>
<path d="M337.44 50.8325H323.484L311.055 35.677C310.328 34.6618 309.892 33.7916 309.892 32.7039V31.8338C309.892 30.8911 310.182 29.6583 310.982 28.7882L323.048 14.6479H336.713L322.176 32.1963L337.44 50.8325ZM307.566 50.8325H295.427V14.6479H307.566V50.8325Z" fill="white"/>
<path d="M379.334 50.8325H350.332C342.699 50.8325 338.92 46.4091 338.92 40.1729C338.92 33.7916 342.699 29.4408 350.332 29.4408H363.852V36.4747H353.094C351.277 36.4747 350.404 37.3448 350.404 39.0127C350.404 40.608 351.277 41.5507 352.948 41.5507H367.413V31.1086C367.413 27.0478 365.305 24.9449 361.089 24.9449H340.882V14.6479H361.235C373.228 14.6479 379.334 20.8841 379.334 31.9063V50.8325Z" fill="white"/>
<path d="M437.787 39.1577H422.668V27.918H438.005C441.421 27.918 443.965 25.4525 443.965 21.8993C443.965 18.2011 441.421 15.8081 438.005 15.8081H419.033V50.8325H406.385V3.69823H437.787C448.762 3.69823 456.613 10.8771 456.613 21.4642C456.613 31.9788 448.762 39.1577 437.787 39.1577Z" fill="white"/>
<path d="M497.634 50.8325H461.726V38.6501H497.052C498.869 38.6501 500.178 37.4899 500.178 35.4595C500.178 33.4291 498.869 32.1963 497.052 32.1963H476.263C467.468 32.1963 461.144 26.3952 461.144 17.9835C461.144 9.42685 467.468 3.69823 476.263 3.69823H512.171V15.8081H476.845C475.028 15.8081 473.792 16.8958 473.792 18.9262C473.792 20.8841 475.028 22.1168 476.845 22.1168H497.634C506.502 22.1168 512.826 27.9905 512.826 36.4022C512.826 45.1039 506.502 50.8325 497.634 50.8325Z" fill="white"/>
<path d="M570.03 39.1577H554.911V27.918H570.248C573.665 27.918 576.209 25.4525 576.209 21.8993C576.209 18.2011 573.665 15.8081 570.248 15.8081H551.277V50.8325H538.629V3.69823H570.03C581.006 3.69823 588.857 10.8771 588.857 21.4642C588.857 31.9788 581.006 39.1577 570.03 39.1577Z" fill="white"/>
<path d="M606.836 50.8325H594.697V0H606.836V50.8325Z" fill="white"/>
<path d="M638.791 50.8325H631.813C619.819 50.8325 613.641 44.5963 613.641 33.5741V14.6479H625.78V33.5741C625.78 37.6349 627.961 39.8103 632.104 39.8103H638.5C642.716 39.8103 644.824 37.6349 644.824 33.5741V14.6479H656.963V33.5741C656.963 44.5963 650.785 50.8325 638.791 50.8325Z" fill="white"/>
<path d="M690.297 50.8325H662.24V40.898H687.826C689.425 40.898 690.37 40.1004 690.37 38.5776C690.37 37.1998 689.57 36.3296 687.826 36.3296H673.579C666.165 36.3296 661.804 31.6162 661.804 25.4525C661.804 18.8537 666.819 14.6479 673.506 14.6479H700.183V24.5823H675.76C674.233 24.5823 673.288 25.38 673.288 26.8303C673.288 28.2806 674.088 29.0782 675.76 29.0782H690.297C697.711 29.0782 702 33.6466 702 39.8828C702 46.5542 697.057 50.8325 690.297 50.8325Z" fill="white"/>
</svg>
